<svg xmlns="http://www.w3.org/2000/svg" width="1696" height="608" viewBox="0 0 1696 608">
<g>
<path d="M 432.25 389.23 C429.29,390.54 424.67,391.50 420.00,391.76 C412.97,392.15 412.06,391.96 405.50,388.60 C399.97,385.78 395.14,381.76 382.50,369.46 C373.70,360.90 365.60,353.28 364.50,352.52 C362.94,351.44 356.03,351.08 332.79,350.85 C304.39,350.57 303.16,350.48 304.70,348.78 C305.59,347.80 307.09,347.00 308.03,347.00 C310.06,347.00 312.42,344.48 311.61,343.17 C311.30,342.67 309.57,341.64 307.77,340.88 C304.86,339.65 307.87,339.44 335.00,339.00 C351.77,338.73 366.40,338.90 367.50,339.38 C368.60,339.87 377.60,348.24 387.50,357.98 C397.41,367.72 407.08,376.52 409.00,377.53 C414.10,380.21 424.22,380.02 429.76,377.15 C435.16,374.36 439.71,368.14 440.57,362.38 C441.31,357.44 439.45,340.77 434.90,311.50 C428.95,273.24 423.47,258.61 411.14,247.97 C399.33,237.77 388.05,235.95 374.00,241.99 C369.88,243.76 362.23,246.76 357.00,248.66 L 347.50 252.10 L 325.00 251.78 L 302.50 251.45 L 287.50 244.14 L 292.50 244.32 C297.37,244.50 297.51,244.42 297.80,241.49 C297.99,239.51 297.38,237.71 296.01,236.24 C293.25,233.27 294.14,233.42 299.27,236.75 L 303.50 239.50 L 350.50 240.10 L 355.00 237.55 C365.69,231.49 375.94,227.01 381.77,225.84 C389.42,224.32 396.16,225.48 405.87,230.02 C414.10,233.88 427.97,247.57 432.68,256.50 C437.35,265.35 441.56,281.08 444.99,302.50 C446.67,312.95 448.68,325.33 449.47,330.00 C453.66,354.92 453.75,363.06 449.91,371.98 C447.33,377.99 438.81,386.31 432.25,389.23 ZM 407.07 304.74 C406.12,306.83 405.43,307.07 401.01,306.80 C397.96,306.62 394.02,305.43 390.87,303.75 C388.04,302.24 385.22,301.00 384.61,300.99 C383.54,300.98 380.75,294.09 379.02,287.22 C377.96,283.00 380.20,273.06 382.61,271.30 C384.72,269.75 390.38,269.60 393.03,271.01 C394.68,271.90 394.85,272.83 394.35,278.26 C393.82,284.07 393.97,284.67 396.41,286.95 C398.98,289.33 399.23,289.37 406.77,288.28 C416.19,286.92 417.22,287.49 416.80,293.91 C416.52,298.22 416.24,298.62 412.32,300.44 C410.03,301.51 407.66,303.44 407.07,304.74 ZM 394.51 320.98 C393.96,322.70 393.02,323.00 388.18,322.98 C385.06,322.98 382.00,322.64 381.40,322.23 C379.31,320.84 378.00,317.12 378.00,312.57 C378.00,308.39 376.91,306.72 375.58,308.86 C374.86,310.04 366.10,312.43 365.33,311.66 C363.94,310.27 367.53,308.00 372.09,307.39 C374.77,307.04 377.48,306.13 378.11,305.37 C380.36,302.65 389.13,304.21 394.46,308.29 C396.11,309.54 396.21,310.04 395.12,311.35 C394.30,312.34 394.07,314.03 394.49,315.94 C394.85,317.60 394.86,319.87 394.51,320.98 ZM 374.95 304.64 C373.60,305.27 371.45,306.10 370.16,306.49 C368.06,307.12 367.94,306.99 368.91,305.16 C370.56,302.09 370.22,301.49 368.00,303.50 C366.46,304.89 365.99,304.98 365.96,303.90 C365.94,303.13 364.48,301.59 362.72,300.49 C359.30,298.33 358.46,296.28 359.43,292.42 C359.96,290.33 360.62,290.00 364.37,290.00 L 368.71 290.00 L 368.34 295.25 L 367.98 300.50 L 369.50 295.00 C370.86,290.13 373.82,286.00 375.97,286.00 C376.38,286.00 377.67,288.57 378.82,291.72 C380.86,297.24 380.87,297.54 379.16,300.47 C378.19,302.14 376.30,304.01 374.95,304.64 Z" fill="rgb(168,122,205)"/>
<path d="M 0.00 0.00 L 1696.00 0.00 L 1696.00 608.00 L 0.00 608.00 ZM 432.25 389.23 C438.81,386.31 447.33,377.99 449.91,371.98 C453.75,363.06 453.66,354.92 449.47,330.00 C448.68,325.33 446.67,312.95 444.99,302.50 C441.56,281.08 437.35,265.35 432.68,256.50 C427.97,247.57 414.10,233.88 405.87,230.02 C396.16,225.48 389.42,224.32 381.77,225.84 C375.94,227.01 365.69,231.49 355.00,237.55 L 350.50 240.10 L 303.50 239.50 L 299.27 236.75 C295.35,234.20 293.90,233.52 294.67,234.66 C290.17,230.24 281.30,226.79 271.36,226.23 C257.00,225.40 244.51,231.28 231.76,244.85 C224.14,252.96 219.00,262.24 216.07,273.21 C214.43,279.32 211.51,298.76 204.99,346.79 C202.73,363.41 204.69,372.10 212.69,381.00 C217.52,386.37 222.49,389.44 228.73,390.91 C237.84,393.06 247.98,391.18 255.60,385.93 C257.89,384.35 267.06,375.85 275.97,367.03 L 292.17 351.00 L 297.43 351.00 C301.42,351.00 303.13,350.52 304.50,349.00 C304.53,348.96 304.57,348.93 304.60,348.89 C303.23,350.49 305.03,350.58 332.79,350.85 C356.03,351.08 362.94,351.44 364.50,352.52 C365.60,353.28 373.70,360.90 382.50,369.46 C395.14,381.76 399.97,385.78 405.50,388.60 C412.06,391.96 412.97,392.15 420.00,391.76 C424.67,391.50 429.29,390.54 432.25,389.23 ZM 311.67 343.28 C310.25,341.90 304.65,339.28 301.21,338.53 C299.40,338.14 295.64,338.14 292.85,338.52 C287.92,339.20 287.26,339.72 268.75,357.56 C258.28,367.65 248.09,376.72 246.11,377.70 C236.79,382.33 223.02,377.92 218.41,368.83 C215.39,362.87 215.40,360.44 218.48,336.09 C219.84,325.31 221.63,310.42 222.45,303.00 C225.37,276.51 231.18,261.59 242.65,251.09 C255.55,239.26 267.98,236.13 281.13,241.39 C284.69,242.81 289.83,244.10 292.55,244.24 C295.05,244.37 296.29,244.42 296.94,244.03 C297.15,243.90 297.30,243.72 297.41,243.49 C297.62,243.06 297.69,242.42 297.78,241.50 C297.93,239.82 297.39,238.15 296.29,236.56 C297.46,237.97 297.98,239.65 297.80,241.49 C297.70,242.41 297.63,243.06 297.41,243.49 C297.30,243.73 297.16,243.90 296.94,244.03 C296.28,244.44 295.03,244.41 292.50,244.32 L 287.50 244.14 L 302.50 251.45 L 325.00 251.78 L 347.50 252.10 L 357.00 248.66 C362.23,246.76 369.88,243.76 374.00,241.99 C388.05,235.95 399.33,237.77 411.14,247.97 C423.47,258.61 428.95,273.24 434.90,311.50 C439.45,340.77 441.31,357.44 440.57,362.38 C439.71,368.14 435.16,374.36 429.76,377.15 C424.22,380.02 414.10,380.21 409.00,377.53 C407.08,376.52 397.41,367.72 387.50,357.98 C377.60,348.24 368.60,339.87 367.50,339.38 C366.40,338.90 351.77,338.73 335.00,339.00 C307.87,339.44 304.86,339.65 307.77,340.88 C309.57,341.64 311.30,342.67 311.61,343.17 C311.63,343.21 311.65,343.25 311.67,343.28 ZM 1205.42 353.52 C1213.78,355.34 1227.37,355.31 1234.54,353.46 C1254.32,348.36 1269.20,334.14 1275.08,314.73 C1279.30,300.82 1279.42,279.20 1275.36,266.50 C1264.34,232.12 1227.61,216.45 1194.39,231.95 C1173.36,241.77 1161.64,262.74 1161.68,290.50 C1161.70,304.55 1163.81,314.23 1169.19,325.00 C1176.59,339.81 1189.65,350.09 1205.42,353.52 ZM 1295.00 228.00 L 1295.00 353.00 L 1308.00 353.00 C1319.69,353.00 1321.01,352.82 1321.07,351.25 C1321.11,350.29 1321.08,340.16 1321.01,328.75 L 1320.87 308.00 L 1340.92 308.00 L 1363.04 353.00 L 1377.02 353.00 C1384.71,353.00 1391.00,352.71 1391.00,352.36 C1391.00,352.00 1385.41,340.85 1378.57,327.57 L 1366.13 303.43 L 1370.96 300.72 C1376.99,297.33 1381.54,292.22 1384.90,285.05 C1387.23,280.08 1387.50,278.30 1387.50,267.98 C1387.50,256.97 1387.35,256.15 1384.21,249.78 C1382.15,245.59 1379.17,241.56 1376.21,238.95 C1365.24,229.28 1359.20,228.04 1322.75,228.02 ZM 515.00 228.00 L 515.00 353.00 L 541.00 353.00 L 541.00 312.00 L 553.75 311.97 C578.58,311.90 587.90,309.27 597.59,299.59 C604.77,292.40 607.88,285.35 608.73,274.30 C609.74,261.07 605.35,247.79 597.19,239.38 C592.62,234.68 582.82,230.11 574.81,228.95 C571.34,228.45 556.46,228.03 541.75,228.02 ZM 723.66 353.25 C729.62,353.43 735.63,353.67 737.02,353.79 C739.41,353.99 739.77,353.28 744.20,339.75 L 748.86 325.50 L 770.87 325.23 L 792.87 324.96 L 797.38 338.73 L 801.88 352.50 L 815.25 352.78 L 828.61 353.05 L 822.44 334.78 C819.04,324.72 812.35,305.02 807.57,291.00 C802.78,276.98 796.09,257.29 792.69,247.25 L 786.50 229.01 L 776.00 229.09 C770.22,229.14 763.27,229.47 760.55,229.84 L 755.59 230.50 L 749.87 247.00 C746.73,256.08 743.16,266.20 741.96,269.50 C740.75,272.80 736.92,283.83 733.44,294.00 C726.71,313.69 714.62,348.36 713.49,351.22 C712.88,352.76 713.89,352.96 723.66,353.25 ZM 963.00 353.46 C971.05,355.71 991.42,354.95 999.42,352.10 C1011.71,347.72 1018.11,342.25 1022.90,332.05 C1025.17,327.21 1025.50,325.22 1025.47,316.50 C1025.44,307.64 1025.13,305.92 1022.76,301.36 C1017.38,291.05 1008.34,285.71 984.84,278.99 C969.20,274.51 964.13,272.25 961.09,268.39 C956.72,262.83 959.70,253.43 967.02,249.75 C971.83,247.34 983.13,247.42 988.62,249.91 C993.31,252.04 995.61,254.86 997.06,260.25 L 998.08 264.00 L 1023.28 264.00 L 1022.68 258.92 C1020.55,240.94 1004.53,227.97 982.44,226.33 C961.22,224.75 943.56,233.27 935.84,248.78 C933.85,252.81 933.51,254.97 933.54,263.50 C933.57,272.64 933.83,273.96 936.50,278.86 C941.99,288.88 950.53,293.79 973.38,300.03 C996.23,306.27 1000.00,308.90 1000.00,318.60 C1000.00,323.12 999.53,324.46 996.95,327.40 C993.09,331.80 988.47,333.33 979.00,333.37 C973.28,333.39 970.55,332.90 967.49,331.30 C961.75,328.30 958.17,324.35 956.88,319.61 C956.27,317.35 955.61,314.94 955.42,314.25 C955.16,313.34 951.81,313.00 943.09,313.00 C936.51,313.00 930.92,313.34 930.67,313.75 C929.63,315.49 932.43,327.90 935.01,333.02 C939.96,342.82 949.26,349.61 963.00,353.46 ZM 1405.83 313.75 L 1406.16 353.00 L 1489.00 353.00 L 1489.00 332.00 L 1432.00 332.00 L 1432.00 301.00 L 1483.00 301.00 L 1483.00 280.28 L 1472.09 279.59 C1466.09,279.21 1454.73,278.97 1446.84,279.06 L 1432.50 279.21 L 1432.22 264.11 L 1431.95 249.00 L 1489.00 249.00 L 1489.00 228.00 L 1406.14 228.00 L 1405.82 251.25 C1405.64,264.04 1405.65,292.16 1405.83,313.75 ZM 1080.64 353.48 C1089.59,355.74 1108.70,354.93 1116.50,351.96 C1125.30,348.60 1131.35,344.55 1136.97,338.24 C1142.21,332.36 1147.40,321.61 1148.59,314.16 L 1149.26 310.00 L 1135.63 310.00 C1123.32,310.00 1122.00,310.17 1121.98,311.75 C1121.95,314.35 1118.19,322.16 1115.69,324.85 C1111.07,329.80 1106.22,331.43 1096.00,331.47 C1088.13,331.49 1085.81,331.13 1082.46,329.33 C1076.20,325.98 1070.62,319.26 1068.04,311.94 C1065.28,304.12 1064.14,285.46 1065.90,276.97 C1068.36,265.17 1075.19,255.60 1083.94,251.71 C1090.07,248.99 1101.93,248.99 1108.11,251.72 C1114.15,254.40 1119.73,261.62 1122.40,270.25 C1122.88,271.80 1124.43,272.00 1135.97,272.00 L 1149.00 272.00 L 1148.98 269.25 C1148.95,265.10 1144.68,253.85 1141.24,248.85 C1131.54,234.75 1114.45,226.00 1096.63,226.00 C1068.89,226.00 1047.56,242.49 1040.36,269.50 C1037.85,278.92 1037.82,301.58 1040.30,311.00 C1042.99,321.24 1049.16,332.79 1055.26,339.04 C1061.39,345.31 1071.83,351.25 1080.64,353.48 ZM 869.25 353.25 C874.89,353.43 880.74,353.67 882.25,353.79 L 885.00 354.00 L 885.00 307.02 L 894.85 289.26 C900.27,279.49 909.33,262.95 914.99,252.50 C920.65,242.05 925.89,232.61 926.64,231.53 C927.39,230.44 928.00,229.19 928.00,228.75 C928.00,228.31 921.61,228.07 913.80,228.22 L 899.59 228.50 L 892.03 243.50 C881.84,263.72 872.61,280.99 872.00,280.97 C871.72,280.96 865.42,269.04 858.00,254.48 L 844.50 228.01 L 830.25 228.00 C822.41,228.00 816.00,228.27 816.00,228.60 C816.00,228.92 816.83,230.39 817.84,231.85 C818.85,233.31 822.08,239.00 825.00,244.50 C827.93,250.00 836.78,266.30 844.66,280.71 L 859.00 306.93 L 859.00 352.93 ZM 624.75 353.42 C625.16,353.84 627.08,353.92 629.00,353.60 C630.92,353.28 648.59,353.02 668.25,353.01 L 704.00 353.00 L 704.00 332.00 L 650.00 332.00 L 650.00 228.00 L 624.00 228.00 L 624.00 290.33 C624.00,324.62 624.34,353.01 624.75,353.42 ZM 1235.88 328.08 C1231.13,331.13 1229.86,331.45 1221.58,331.79 C1213.04,332.14 1212.13,331.98 1206.35,329.05 C1196.69,324.17 1190.98,314.99 1188.95,301.05 C1186.48,284.15 1189.77,268.16 1197.55,259.26 C1203.70,252.24 1210.14,249.52 1220.50,249.59 C1229.99,249.64 1234.05,251.16 1240.42,257.03 C1248.91,264.86 1252.69,277.14 1251.72,293.81 C1250.73,310.89 1245.70,321.78 1235.88,328.08 ZM 326.00 202.05 L 326.00 235.10 L 331.75 234.80 L 337.50 234.50 L 338.05 202.22 L 341.01 200.99 C344.68,199.48 350.72,192.92 352.60,188.42 C354.25,184.46 354.44,175.30 352.94,171.32 C349.37,161.78 341.70,156.00 332.62,156.00 C323.76,156.00 317.59,160.02 313.10,168.73 C311.60,171.64 311.53,185.64 312.99,189.50 C314.35,193.10 319.45,198.62 323.25,200.61 ZM 573.50 288.50 C570.18,290.16 567.07,290.56 555.25,290.82 L 541.00 291.15 L 541.00 250.00 L 554.98 250.00 C571.87,250.00 575.82,251.18 579.74,257.38 C581.71,260.51 582.43,263.16 582.75,268.49 C583.11,274.68 582.83,276.14 580.33,281.00 C578.21,285.12 576.49,287.00 573.50,288.50 ZM 1352.98 284.75 C1349.04,286.76 1347.12,287.00 1334.79,287.00 L 1321.00 287.00 L 1321.00 248.81 L 1334.75 249.15 C1347.21,249.47 1348.92,249.74 1352.97,252.00 C1359.71,255.77 1362.15,260.70 1361.77,269.70 C1361.41,278.24 1359.57,281.38 1352.98,284.75 ZM 266.00 325.00 C268.52,327.52 272.09,327.56 275.14,325.09 C277.34,323.30 277.49,322.51 277.50,312.59 C277.50,306.77 277.27,301.85 277.00,301.66 C276.73,301.48 277.17,301.56 278.00,301.84 C278.83,302.13 283.61,302.55 288.63,302.77 C297.27,303.16 297.84,303.06 299.38,300.87 C301.23,298.23 301.49,293.78 299.96,290.93 C299.11,289.33 297.83,289.00 292.46,289.00 L 286.00 289.00 L 286.00 283.50 C286.00,277.34 285.31,276.90 280.34,279.93 C278.61,280.99 276.92,281.59 276.59,281.26 C276.27,280.93 276.00,277.62 276.00,273.89 C276.00,268.02 275.70,266.90 273.78,265.56 C271.03,263.63 267.98,263.57 265.51,265.37 C263.96,266.50 263.62,268.11 263.56,274.46 C263.51,281.21 263.22,282.40 261.25,284.00 C257.84,286.76 258.48,287.75 264.44,288.99 C269.11,289.96 270.25,289.88 272.43,288.45 L 274.97 286.79 L 273.92 290.15 C273.34,291.99 272.45,294.28 271.93,295.24 C264.18,309.62 264.00,310.12 264.00,316.58 C264.00,321.67 264.42,323.42 266.00,325.00 ZM 407.07 304.74 C407.66,303.44 410.03,301.51 412.32,300.44 C416.24,298.62 416.52,298.22 416.80,293.91 C417.22,287.49 416.19,286.92 406.77,288.28 C399.23,289.37 398.98,289.33 396.41,286.95 C393.97,284.67 393.82,284.07 394.35,278.26 C394.85,272.83 394.68,271.90 393.03,271.01 C390.38,269.60 384.72,269.75 382.61,271.30 C380.20,273.06 377.96,283.00 379.02,287.22 C380.75,294.09 383.54,300.98 384.61,300.99 C385.22,301.00 388.04,302.24 390.87,303.75 C394.02,305.43 397.96,306.62 401.01,306.80 C405.43,307.07 406.12,306.83 407.07,304.74 ZM 785.74 302.75 C786.11,303.72 782.78,304.00 771.11,304.00 C762.80,304.00 756.00,303.62 756.00,303.16 C756.00,302.70 759.15,293.02 763.00,281.64 C766.85,270.27 770.00,260.29 770.00,259.48 C770.00,254.92 772.22,260.30 778.38,279.76 C782.16,291.72 785.47,302.06 785.74,302.75 ZM 259.44 306.50 C260.24,308.42 261.39,310.00 262.00,310.00 C263.31,310.00 266.00,303.94 266.00,301.00 C266.00,299.86 266.77,297.75 267.71,296.31 C269.38,293.77 269.36,293.65 267.04,292.11 C262.43,289.05 257.98,288.16 250.15,288.72 C240.07,289.44 239.00,290.06 239.00,295.21 C239.00,301.70 240.85,303.00 250.14,303.00 L 257.97 303.00 ZM 336.54 189.55 C332.14,191.38 330.97,191.37 328.22,189.44 C323.37,186.04 321.63,178.55 324.43,173.13 C326.54,169.06 328.49,167.80 332.69,167.80 C338.04,167.80 342.00,172.33 342.00,178.45 C342.00,184.89 340.53,187.88 336.54,189.55 ZM 394.51 320.98 C394.86,319.87 394.85,317.60 394.49,315.94 C394.07,314.03 394.30,312.34 395.12,311.35 C396.21,310.04 396.11,309.54 394.46,308.29 C389.13,304.21 380.36,302.65 378.11,305.37 C377.48,306.13 374.77,307.04 372.09,307.39 C367.53,308.00 363.94,310.27 365.33,311.66 C366.10,312.43 374.86,310.04 375.58,308.86 C376.91,306.72 378.00,308.39 378.00,312.57 C378.00,317.12 379.31,320.84 381.40,322.23 C382.00,322.64 385.06,322.98 388.18,322.98 C393.02,323.00 393.96,322.70 394.51,320.98 ZM 374.95 304.64 C376.30,304.01 378.19,302.14 379.16,300.47 C380.87,297.54 380.86,297.24 378.82,291.72 C377.67,288.57 376.38,286.00 375.97,286.00 C373.82,286.00 370.86,290.13 369.50,295.00 L 367.98 300.50 L 368.34 295.25 L 368.71 290.00 L 364.37 290.00 C360.62,290.00 359.96,290.33 359.43,292.42 C358.46,296.28 359.30,298.33 362.72,300.49 C364.48,301.59 365.94,303.13 365.96,303.90 C365.99,304.98 366.46,304.89 368.00,303.50 C370.22,301.49 370.56,302.09 368.91,305.16 C367.94,306.99 368.06,307.12 370.16,306.49 C371.45,306.10 373.60,305.27 374.95,304.64 ZM 307.04 347.21 C307.38,347.08 307.69,347.00 307.95,347.00 C308.52,347.00 309.15,346.80 309.74,346.49 C309.20,346.80 308.60,347.00 308.03,347.00 C307.74,347.00 307.40,347.08 307.04,347.21 Z" fill="rgb(32,39,55)"/>
<path d="M 1205.42 353.52 C1189.65,350.09 1176.59,339.81 1169.19,325.00 C1163.81,314.23 1161.70,304.55 1161.68,290.50 C1161.64,262.74 1173.36,241.77 1194.39,231.95 C1227.61,216.45 1264.34,232.12 1275.36,266.50 C1279.42,279.20 1279.30,300.82 1275.08,314.73 C1269.20,334.14 1254.32,348.36 1234.54,353.46 C1227.37,355.31 1213.78,355.34 1205.42,353.52 ZM 1295.00 228.00 L 1322.75 228.02 C1359.20,228.04 1365.24,229.28 1376.21,238.95 C1379.17,241.56 1382.15,245.59 1384.21,249.78 C1387.35,256.15 1387.50,256.97 1387.50,267.98 C1387.50,278.30 1387.23,280.08 1384.90,285.05 C1381.54,292.22 1376.99,297.33 1370.96,300.72 L 1366.13 303.43 L 1378.57 327.57 C1385.41,340.85 1391.00,352.00 1391.00,352.36 C1391.00,352.71 1384.71,353.00 1377.02,353.00 L 1363.04 353.00 L 1340.92 308.00 L 1320.87 308.00 L 1321.01 328.75 C1321.08,340.16 1321.11,350.29 1321.07,351.25 C1321.01,352.82 1319.69,353.00 1308.00,353.00 L 1295.00 353.00 ZM 963.00 353.46 C949.26,349.61 939.96,342.82 935.01,333.02 C932.43,327.90 929.63,315.49 930.67,313.75 C930.92,313.34 936.51,313.00 943.09,313.00 C951.81,313.00 955.16,313.34 955.42,314.25 C955.61,314.94 956.27,317.35 956.88,319.61 C958.17,324.35 961.75,328.30 967.49,331.30 C970.55,332.90 973.28,333.39 979.00,333.37 C988.47,333.33 993.09,331.80 996.95,327.40 C999.53,324.46 1000.00,323.12 1000.00,318.60 C1000.00,308.90 996.23,306.27 973.38,300.03 C950.53,293.79 941.99,288.88 936.50,278.86 C933.83,273.96 933.57,272.64 933.54,263.50 C933.51,254.97 933.85,252.81 935.84,248.78 C943.56,233.27 961.22,224.75 982.44,226.33 C1004.53,227.97 1020.55,240.94 1022.68,258.92 L 1023.28 264.00 L 998.08 264.00 L 997.06 260.25 C995.61,254.86 993.31,252.04 988.62,249.91 C983.13,247.42 971.83,247.34 967.02,249.75 C959.70,253.43 956.72,262.83 961.09,268.39 C964.13,272.25 969.20,274.51 984.84,278.99 C1008.34,285.71 1017.38,291.05 1022.76,301.36 C1025.13,305.92 1025.44,307.64 1025.47,316.50 C1025.50,325.22 1025.17,327.21 1022.90,332.05 C1018.11,342.25 1011.71,347.72 999.42,352.10 C991.42,354.95 971.05,355.71 963.00,353.46 ZM 1405.83 313.75 C1405.65,292.16 1405.64,264.04 1405.82,251.25 L 1406.14 228.00 L 1489.00 228.00 L 1489.00 249.00 L 1431.95 249.00 L 1432.22 264.11 L 1432.50 279.21 L 1446.84 279.06 C1454.73,278.97 1466.09,279.21 1472.09,279.59 L 1483.00 280.28 L 1483.00 301.00 L 1432.00 301.00 L 1432.00 332.00 L 1489.00 332.00 L 1489.00 353.00 L 1406.16 353.00 ZM 1080.64 353.48 C1071.83,351.25 1061.39,345.31 1055.26,339.04 C1049.16,332.79 1042.99,321.24 1040.30,311.00 C1037.82,301.58 1037.85,278.92 1040.36,269.50 C1047.56,242.49 1068.89,226.00 1096.63,226.00 C1114.45,226.00 1131.54,234.75 1141.24,248.85 C1144.68,253.85 1148.95,265.10 1148.98,269.25 L 1149.00 272.00 L 1135.97 272.00 C1124.43,272.00 1122.88,271.80 1122.40,270.25 C1119.73,261.62 1114.15,254.40 1108.11,251.72 C1101.93,248.99 1090.07,248.99 1083.94,251.71 C1075.19,255.60 1068.36,265.17 1065.90,276.97 C1064.14,285.46 1065.28,304.12 1068.04,311.94 C1070.62,319.26 1076.20,325.98 1082.46,329.33 C1085.81,331.13 1088.13,331.49 1096.00,331.47 C1106.22,331.43 1111.07,329.80 1115.69,324.85 C1118.19,322.16 1121.95,314.35 1121.98,311.75 C1122.00,310.17 1123.32,310.00 1135.63,310.00 L 1149.26 310.00 L 1148.59 314.16 C1147.40,321.61 1142.21,332.36 1136.97,338.24 C1131.35,344.55 1125.30,348.60 1116.50,351.96 C1108.70,354.93 1089.59,355.74 1080.64,353.48 ZM 1235.88 328.08 C1245.70,321.78 1250.73,310.89 1251.72,293.81 C1252.69,277.14 1248.91,264.86 1240.42,257.03 C1234.05,251.16 1229.99,249.64 1220.50,249.59 C1210.14,249.52 1203.70,252.24 1197.55,259.26 C1189.77,268.16 1186.48,284.15 1188.95,301.05 C1190.98,314.99 1196.69,324.17 1206.35,329.05 C1212.13,331.98 1213.04,332.14 1221.58,331.79 C1229.86,331.45 1231.13,331.13 1235.88,328.08 ZM 311.67 343.28 C312.11,344.23 311.08,345.71 309.74,346.49 C309.15,346.80 308.52,347.00 307.95,347.00 C307.69,347.00 307.38,347.08 307.04,347.21 C306.22,347.51 305.31,348.10 304.70,348.78 C304.66,348.82 304.63,348.86 304.60,348.89 C304.57,348.93 304.53,348.96 304.50,349.00 C303.13,350.52 301.42,351.00 297.43,351.00 L 292.17 351.00 L 275.97 367.03 C267.06,375.85 257.89,384.35 255.60,385.93 C247.98,391.18 237.84,393.06 228.73,390.91 C222.49,389.44 217.52,386.37 212.69,381.00 C204.69,372.10 202.73,363.41 204.99,346.79 C211.51,298.76 214.43,279.32 216.07,273.21 C219.00,262.24 224.14,252.96 231.76,244.85 C244.51,231.28 257.00,225.40 271.36,226.23 C281.30,226.79 290.17,230.24 294.67,234.66 C294.91,235.01 295.36,235.54 296.01,236.24 C296.11,236.34 296.20,236.45 296.29,236.56 C297.39,238.15 297.93,239.82 297.78,241.50 C297.69,242.42 297.62,243.06 297.41,243.49 L 297.41 243.50 C297.30,243.72 297.15,243.90 296.94,244.03 C296.29,244.42 295.05,244.37 292.55,244.24 C289.83,244.10 284.69,242.81 281.13,241.39 C267.98,236.13 255.55,239.26 242.65,251.09 C231.18,261.59 225.37,276.51 222.45,303.00 C221.63,310.42 219.84,325.31 218.48,336.09 C215.40,360.44 215.39,362.87 218.41,368.83 C223.02,377.92 236.79,382.33 246.11,377.70 C248.09,376.72 258.28,367.65 268.75,357.56 C287.26,339.72 287.92,339.20 292.85,338.52 C295.64,338.14 299.40,338.14 301.21,338.53 C304.65,339.28 310.25,341.90 311.67,343.28 ZM 326.00 202.05 L 323.25 200.61 C319.45,198.62 314.35,193.10 312.99,189.50 C311.53,185.64 311.60,171.64 313.10,168.73 C317.59,160.02 323.76,156.00 332.62,156.00 C341.70,156.00 349.37,161.78 352.94,171.32 C354.44,175.30 354.25,184.46 352.60,188.42 C350.72,192.92 344.68,199.48 341.01,200.99 L 338.05 202.22 L 337.50 234.50 L 331.75 234.80 L 326.00 235.10 ZM 1352.98 284.75 C1359.57,281.38 1361.41,278.24 1361.77,269.70 C1362.15,260.70 1359.71,255.77 1352.97,252.00 C1348.92,249.74 1347.21,249.47 1334.75,249.15 L 1321.00 248.81 L 1321.00 287.00 L 1334.79 287.00 C1347.12,287.00 1349.04,286.76 1352.98,284.75 ZM 266.00 325.00 C264.42,323.42 264.00,321.67 264.00,316.58 C264.00,310.12 264.18,309.62 271.93,295.24 C272.45,294.28 273.34,291.99 273.92,290.15 L 274.97 286.79 L 272.43 288.45 C270.25,289.88 269.11,289.96 264.44,288.99 C258.48,287.75 257.84,286.76 261.25,284.00 C263.22,282.40 263.51,281.21 263.56,274.46 C263.62,268.11 263.96,266.50 265.51,265.37 C267.98,263.57 271.03,263.63 273.78,265.56 C275.70,266.90 276.00,268.02 276.00,273.89 C276.00,277.62 276.27,280.93 276.59,281.26 C276.92,281.59 278.61,280.99 280.34,279.93 C285.31,276.90 286.00,277.34 286.00,283.50 L 286.00 289.00 L 292.46 289.00 C297.83,289.00 299.11,289.33 299.96,290.93 C301.49,293.78 301.23,298.23 299.38,300.87 C297.84,303.06 297.27,303.16 288.63,302.77 C283.61,302.55 278.83,302.13 278.00,301.84 C277.17,301.56 276.73,301.48 277.00,301.66 C277.27,301.85 277.50,306.77 277.50,312.59 C277.49,322.51 277.34,323.30 275.14,325.09 C272.09,327.56 268.52,327.52 266.00,325.00 ZM 259.44 306.50 L 257.97 303.00 L 250.14 303.00 C240.85,303.00 239.00,301.70 239.00,295.21 C239.00,290.06 240.07,289.44 250.15,288.72 C257.98,288.16 262.43,289.05 267.04,292.11 C269.36,293.65 269.38,293.77 267.71,296.31 C266.77,297.75 266.00,299.86 266.00,301.00 C266.00,303.94 263.31,310.00 262.00,310.00 C261.39,310.00 260.24,308.42 259.44,306.50 ZM 336.54 189.55 C340.53,187.88 342.00,184.89 342.00,178.45 C342.00,172.33 338.04,167.80 332.69,167.80 C328.49,167.80 326.54,169.06 324.43,173.13 C321.63,178.55 323.37,186.04 328.22,189.44 C330.97,191.37 332.14,191.38 336.54,189.55 Z" fill="rgb(54,198,214)"/>
<path d="M 624.75 353.42 C624.34,353.01 624.00,324.62 624.00,290.33 L 624.00 228.00 L 637.00 228.00 L 650.00 228.00 L 650.00 280.00 L 650.00 332.00 L 677.00 332.00 L 704.00 332.00 L 704.00 342.50 L 704.00 353.00 L 668.25 353.01 C648.59,353.02 630.92,353.28 629.00,353.60 C627.08,353.92 625.16,353.84 624.75,353.42 ZM 723.66 353.25 C713.89,352.96 712.88,352.76 713.49,351.22 C714.62,348.36 726.71,313.69 733.44,294.00 C736.92,283.83 740.75,272.80 741.96,269.50 C743.16,266.20 746.73,256.08 749.87,247.00 L 755.59 230.50 L 760.55 229.84 C763.27,229.47 770.22,229.14 776.00,229.09 L 786.50 229.01 L 792.69 247.25 C796.09,257.29 802.78,276.98 807.57,291.00 C812.35,305.02 819.04,324.72 822.44,334.78 L 828.61 353.05 L 815.25 352.78 L 801.88 352.50 L 797.38 338.73 L 792.87 324.96 L 770.87 325.23 L 748.86 325.50 L 744.20 339.75 C739.77,353.28 739.41,353.99 737.02,353.79 C735.63,353.67 729.62,353.43 723.66,353.25 ZM 785.74 302.75 C785.47,302.06 782.16,291.72 778.38,279.76 C772.22,260.30 770.00,254.92 770.00,259.48 C770.00,260.29 766.85,270.27 763.00,281.64 C759.15,293.02 756.00,302.70 756.00,303.16 C756.00,303.62 762.80,304.00 771.11,304.00 C782.78,304.00 786.11,303.72 785.74,302.75 ZM 869.25 353.25 L 859.00 352.93 L 859.00 329.93 L 859.00 306.93 L 844.66 280.71 C836.78,266.30 827.93,250.00 825.00,244.50 C822.08,239.00 818.85,233.31 817.84,231.85 C816.83,230.39 816.00,228.92 816.00,228.60 C816.00,228.27 822.41,228.00 830.25,228.00 L 844.50 228.01 L 858.00 254.48 C865.42,269.04 871.72,280.96 872.00,280.97 C872.61,280.99 881.84,263.72 892.03,243.50 L 899.59 228.50 L 913.80 228.22 C921.61,228.07 928.00,228.31 928.00,228.75 C928.00,229.19 927.39,230.44 926.64,231.53 C925.89,232.61 920.65,242.05 914.99,252.50 C909.33,262.95 900.27,279.49 894.85,289.26 L 885.00 307.02 L 885.00 330.51 L 885.00 354.00 L 882.25 353.79 C880.74,353.67 874.89,353.43 869.25,353.25 ZM 515.00 290.50 L 515.00 228.00 L 541.75 228.02 C556.46,228.03 571.34,228.45 574.81,228.95 C582.82,230.11 592.62,234.68 597.19,239.38 C605.35,247.79 609.74,261.07 608.73,274.30 C607.88,285.35 604.77,292.40 597.59,299.59 C587.90,309.27 578.58,311.90 553.75,311.97 L 541.00 312.00 L 541.00 332.50 L 541.00 353.00 L 528.00 353.00 L 515.00 353.00 L 515.00 290.50 ZM 573.50 288.50 C576.49,287.00 578.21,285.12 580.33,281.00 C582.83,276.14 583.11,274.68 582.75,268.49 C582.43,263.16 581.71,260.51 579.74,257.38 C575.82,251.18 571.87,250.00 554.98,250.00 L 541.00 250.00 L 541.00 270.57 L 541.00 291.15 L 555.25 290.82 C567.07,290.56 570.18,290.16 573.50,288.50 Z" fill="rgb(253,253,253)"/>
</g>
</svg>